<?xml version="1.0" standalone="no"?><!DOCTYPE svg PUBLIC "-//W3C//DTD SVG 1.1//EN" "http://www.w3.org/Graphics/SVG/1.1/DTD/svg11.dtd"><svg t="1702205275633" class="icon" viewBox="0 0 1024 1024" version="1.1" xmlns="http://www.w3.org/2000/svg" p-id="20181" xmlns:xlink="http://www.w3.org/1999/xlink" width="200" height="200"><path d="M804 392.7v459l-474.6 16.8V407.4" fill="#91B4FF" p-id="20182"></path><path d="M860.6 458.9L567.5 197.6 329.4 407.4" fill="#91B4FF" p-id="20183"></path><path d="M220.1 607.6c-14.6 0-26.4-11.8-26.4-26.4V424.5c0-14.6 11.8-26.4 26.4-26.4s26.4 11.8 26.4 26.4v156.8c-0.1 14.5-11.9 26.3-26.4 26.3zM220.1 738.3c-14.6 0-26.4-11.8-26.4-26.4v-50.5c0-14.6 11.8-26.4 26.4-26.4s26.4 11.8 26.4 26.4V712c-0.1 14.5-11.9 26.3-26.4 26.3zM804 897.5H220.1c-14.6 0-26.4-11.8-26.4-26.4v-71.3c0-14.6 11.8-26.4 26.4-26.4s26.4 11.8 26.4 26.4v45h531.2V424.5c0-14.6 11.8-26.4 26.4-26.4s26.4 11.8 26.4 26.4v446.7c-0.1 14.5-12 26.3-26.5 26.3z" fill="#3778FF" p-id="20184"></path><path d="M932.6 553.1c-6.2 0-12.5-2.2-17.5-6.7L510.9 186.1 106.7 546.4c-10.9 9.7-27.5 8.7-37.2-2.1-9.7-10.9-8.7-27.5 2.1-37.2l421.7-375.9c10-8.9 25.1-8.9 35.1 0l421.7 375.9c10.9 9.7 11.8 26.3 2.1 37.2-5.1 5.8-12.4 8.8-19.6 8.8z" fill="#3778FF" p-id="20185"></path></svg>